<svg width="659" height="545" viewBox="0 0 659 545" fill="none" xmlns="http://www.w3.org/2000/svg">
<path fill-rule="evenodd" clip-rule="evenodd" d="M378.58 398.821C281.92 398.276 179.654 497.522 102.569 439.2C26.0537 381.308 27.7549 251.146 68.7283 164.386C105.289 86.9711 201.632 54.9903 287.011 48.6503C344.195 44.4039 372.537 118.169 426.404 137.826C462.239 150.903 505.322 117.667 536.473 139.685C575.821 167.496 598.83 214.101 602.314 262.159C606.947 326.066 613.055 408.371 558.374 441.771C503.71 475.162 442.635 399.183 378.58 398.821Z" fill="white" fill-opacity="0.56"/>
<ellipse cx="329.167" cy="379.691" rx="272.866" ry="12.6915" fill="black" fill-opacity="0.11"/>
<path d="M227.901 289.848V330.128H65.5399L62.4414 298.214L153.072 152.429H194.282L149.509 225.709L112.327 289.848H227.901ZM205.127 152.429V378H152.918V152.429H205.127ZM407.924 244.61V285.82C407.924 302.035 406.013 316.133 402.192 328.114C398.474 340.095 393.103 350.01 386.08 357.86C379.16 365.709 370.897 371.545 361.292 375.366C351.686 379.188 341.1 381.098 329.532 381.098C320.236 381.098 311.561 379.911 303.505 377.535C295.448 375.056 288.167 371.338 281.66 366.381C275.257 361.32 269.731 355.019 265.083 347.48C260.435 339.94 256.872 331.058 254.393 320.833C251.915 310.504 250.675 298.833 250.675 285.82V244.61C250.675 228.291 252.534 214.193 256.252 202.315C260.074 190.334 265.496 180.419 272.52 172.57C279.543 164.72 287.857 158.884 297.462 155.063C307.068 151.242 317.654 149.331 329.222 149.331C338.518 149.331 347.142 150.57 355.095 153.049C363.151 155.424 370.432 159.143 376.939 164.204C383.446 169.161 388.971 175.41 393.516 182.949C398.164 190.489 401.727 199.423 404.206 209.752C406.685 219.977 407.924 231.596 407.924 244.61ZM355.714 292.172V237.948C355.714 230.718 355.301 224.418 354.475 219.047C353.752 213.676 352.616 209.132 351.067 205.414C349.621 201.695 347.813 198.7 345.644 196.428C343.475 194.052 340.996 192.348 338.208 191.315C335.522 190.179 332.527 189.611 329.222 189.611C325.091 189.611 321.373 190.489 318.068 192.245C314.866 193.898 312.129 196.583 309.856 200.301C307.584 204.019 305.828 208.977 304.589 215.174C303.453 221.371 302.885 228.962 302.885 237.948V292.172C302.885 299.505 303.246 305.908 303.969 311.382C304.796 316.753 305.932 321.349 307.378 325.171C308.927 328.889 310.786 331.936 312.955 334.311C315.124 336.583 317.603 338.236 320.391 339.269C323.18 340.302 326.227 340.818 329.532 340.818C333.56 340.818 337.175 339.992 340.377 338.339C343.578 336.687 346.315 334.001 348.588 330.283C350.963 326.462 352.719 321.452 353.855 315.255C355.095 308.955 355.714 301.261 355.714 292.172ZM482.908 243.37H508.315C514.822 243.37 520.141 242.234 524.273 239.962C528.507 237.586 531.657 234.281 533.723 230.047C535.789 225.709 536.822 220.596 536.822 214.709C536.822 210.165 535.84 205.982 533.878 202.16C532.019 198.339 529.127 195.292 525.202 193.02C521.277 190.644 516.268 189.456 510.174 189.456C506.043 189.456 502.015 190.334 498.09 192.09C494.166 193.743 490.912 196.118 488.33 199.217C485.851 202.315 484.612 206.085 484.612 210.526H432.247C432.247 197.719 435.759 186.771 442.782 177.682C449.909 168.49 459.256 161.467 470.823 156.612C482.495 151.655 495.043 149.176 508.47 149.176C524.479 149.176 538.526 151.655 550.61 156.612C562.694 161.467 572.093 168.696 578.806 178.302C585.623 187.804 589.031 199.578 589.031 213.625C589.031 221.371 587.224 228.652 583.609 235.469C579.994 242.286 574.933 248.276 568.426 253.44C561.919 258.605 554.276 262.684 545.497 265.679C536.822 268.571 527.319 270.017 516.991 270.017H482.908V243.37ZM482.908 282.256V256.229H516.991C528.249 256.229 538.526 257.52 547.821 260.102C557.117 262.581 565.121 266.299 571.835 271.257C578.548 276.214 583.712 282.36 587.327 289.693C590.942 296.923 592.749 305.237 592.749 314.636C592.749 325.171 590.632 334.569 586.398 342.832C582.163 351.095 576.224 358.066 568.581 363.747C560.938 369.427 552.004 373.765 541.779 376.761C531.554 379.653 520.451 381.098 508.47 381.098C499.071 381.098 489.673 379.859 480.274 377.38C470.875 374.798 462.303 370.873 454.556 365.606C446.81 360.235 440.561 353.419 435.81 345.156C431.163 336.79 428.839 326.823 428.839 315.255H481.203C481.203 320.006 482.495 324.344 485.077 328.269C487.762 332.091 491.325 335.137 495.766 337.41C500.208 339.682 505.01 340.818 510.174 340.818C516.578 340.818 522 339.63 526.442 337.255C530.986 334.776 534.446 331.471 536.822 327.34C539.197 323.208 540.385 318.612 540.385 313.551C540.385 305.908 539.094 299.815 536.512 295.27C534.033 290.726 530.366 287.421 525.512 285.355C520.761 283.289 515.029 282.256 508.315 282.256H482.908Z" fill="#4C3E35"/>
<circle cx="441.301" cy="84" r="33" fill="#FCD0B3"/>
<circle cx="546.801" cy="102.5" r="14.5" fill="#FCD0B3"/>
<circle cx="602.301" cy="179" r="10" fill="#FCD0B3"/>
</svg>
